<svg xmlns="http://www.w3.org/2000/svg" viewBox="0 0 52.74 52.39"><defs><style>.cls-1{fill:none;}.cls-2,.cls-5,.cls-8{fill:#f25553;}.cls-3,.cls-4,.cls-7,.cls-9{fill:#242124;}.cls-3,.cls-8{stroke:#242124;}.cls-3,.cls-5,.cls-6,.cls-7,.cls-8,.cls-9{stroke-miterlimit:10;}.cls-5,.cls-7,.cls-9{stroke:#f25553;}.cls-5,.cls-6,.cls-7,.cls-8{stroke-width:0.5px;}.cls-6{fill:#fcfcfc;stroke:#212633;}.cls-9{stroke-width:0.25px;}</style></defs><title>app_ikon_final_rund</title><g id="Layer_2" data-name="Layer 2"><g id="logo_copy_rund" data-name="logo copy rund"><rect class="cls-1" width="52.74" height="52.39"/><rect class="cls-2" x="0.39" y="0.18" width="52.14" height="52.14" rx="26.07" ry="26.07"/><path class="cls-3" d="M48.55,39.16C46.47,37.83,38,33.65,38,33.65s-1.12-.37-2.82-.83a12.73,12.73,0,0,0-3.22-.25,31.18,31.18,0,0,1-4.4-.36c-4.22-.63-4.31-.32-3.48.53s6.16,1.84,5.49,2.73S24,35.06,24,35.06l-2.6-1.36S18,31.62,15.63,31.88s-1.34,1.42-1.34,1.42,3.74.66,2.17.83-1.1,1.12-1.1,1.12c1.66.34,10.72,4,10.72,4a10.88,10.88,0,0,0,3.09,1.56c7.67,0,10.62,1.48,10.62,1.48a3.31,3.31,0,0,1,2.19,1,14.33,14.33,0,0,0,1.94,1.63l.94-.91.91-1,1-1.19.65-.91.72-1.07Z"/><rect class="cls-4" x="14.82" y="14.42" width="20.51" height="13.68" rx="1.82" ry="1.82" transform="translate(5.82 -5.39) rotate(13.86)"/><circle class="cls-4" cx="21.41" cy="11.99" r="6.46"/><circle class="cls-4" cx="34.48" cy="14.93" r="6.46"/><polygon class="cls-4" points="14.6 16.71 13.28 22.17 7.41 22.53 10.75 11.74 14.6 16.71"/><polygon class="cls-5" points="13.1 14.66 11.01 22.23 11.63 22.23 13.45 14.96 13.1 14.66"/><circle class="cls-6" cx="21.44" cy="11.71" r="4.25"/><circle class="cls-7" cx="21.53" cy="11.71" r="4.25"/><circle class="cls-5" cx="21.53" cy="11.74" r="3.08"/><circle class="cls-8" cx="34.72" cy="14.55" r="4.44"/><circle class="cls-8" cx="34.71" cy="14.59" r="3.23"/><rect class="cls-9" x="16.59" y="22.86" width="15.21" height="3.94" rx="1.82" ry="1.82" transform="translate(6.65 -5.07) rotate(13.86)"/></g></g></svg>
