<svg xmlns="http://www.w3.org/2000/svg" viewBox="0 0 52.74 52.64"><defs><style>.cls-1{fill:none;}.cls-2{fill:#f25553;}.cls-3{fill:#242124;}.cls-4{fill:#fcfcfc;}.cls-5{fill:#212633;}</style></defs><title>app_ikon_final</title><g id="Layer_2" data-name="Layer 2"><g id="Layer_1-2" data-name="Layer 1"><g id="Layer_2-2" data-name="Layer 2"><g id="logo_copy" data-name="logo copy"><rect class="cls-1" width="52.74" height="52.39"/><rect class="cls-2" x="0.35" y="0.25" width="52.14" height="52.14" rx="13.64" ry="13.64"/><path class="cls-2" d="M38.85,52.64H14A13.9,13.9,0,0,1,.1,38.75V13.89A13.9,13.9,0,0,1,14,0H38.85A13.9,13.9,0,0,1,52.74,13.89V38.75A13.9,13.9,0,0,1,38.85,52.64ZM14,.5A13.41,13.41,0,0,0,.6,13.89V38.75A13.41,13.41,0,0,0,14,52.14H38.85A13.41,13.41,0,0,0,52.24,38.75V13.89A13.41,13.41,0,0,0,38.85.5Z"/><path class="cls-3" d="M51.66,42.56C49.58,41.23,38,33.66,38,33.66s-1.12-.36-2.81-.83A12.89,12.89,0,0,0,32,32.58a32.48,32.48,0,0,1-4.4-.35c-4.22-.63-4.31-.33-3.48.52,1,1,6.16,1.84,5.49,2.73s-5.51-.4-5.51-.4l-2.6-1.37S18,31.63,15.63,31.89s-1.33,1.42-1.33,1.42,3.74.66,2.16.83-1.09,1.12-1.09,1.12c1.65.35,10.72,4,10.72,4a10.9,10.9,0,0,0,3.08,1.56c7.68,0,10.63,1.49,10.63,1.49,1.64.22,6,4.46,6,4.46a17.82,17.82,0,0,0,2.11,1.77l.94-.91.84-1,.62-.94.63-1.15.53-1.28Z"/><path class="cls-3" d="M48,49.19,47.62,49a18,18,0,0,1-2.17-1.82c-1.64-1.6-4.64-4.18-5.72-4.32l-.15-.05s-3-1.44-10.41-1.44l-.15,0a11.39,11.39,0,0,1-3.17-1.6c-3.14-1.26-9.32-3.68-10.58-4l-.24,0-.1-.21a1.2,1.2,0,0,1,0-1.08,1.31,1.31,0,0,1,.35-.4l-1.07-.21-.17,0-.11-.13a1.28,1.28,0,0,1-.29-1.25c.21-.55.84-.88,1.94-1,2.5-.28,6,1.8,6.15,1.89l2.52,1.33a15.2,15.2,0,0,0,4.68.66,15.39,15.39,0,0,0-2.14-.81,9,9,0,0,1-3.05-1.36c-.28-.28-.74-.76-.49-1.25s.95-.63,4.39-.11a33.25,33.25,0,0,0,4.34.34,12.83,12.83,0,0,1,3.31.26c1.74.48,2.86.84,2.86.84l.12.06c.12.08,11.6,7.59,13.66,8.9l.31.2-.29,1-.55,1.34-.65,1.2-.64,1-.88,1Zm-8-7.36c1.8.34,5.75,4.14,6.2,4.58a16.17,16.17,0,0,0,1.72,1.48l.63-.62.81-1,.58-.89.61-1.12.58-1.52c-2.59-1.67-12.45-8.11-13.3-8.66-.25-.09-1.28-.41-2.72-.81A12.53,12.53,0,0,0,32,33.08a33.43,33.43,0,0,1-4.49-.36,24.77,24.77,0,0,0-3.06-.33h0a10,10,0,0,0,2.66,1.11c1.83.61,2.8,1,3,1.59a.76.76,0,0,1-.13.68c-.76,1-4.11.3-6-.22l-.1,0-2.6-1.37c-.06,0-3.38-2-5.56-1.76-1,.11-1.1.35-1.11.36a.36.36,0,0,0,0,.11c2.77.5,2.76.8,2.75,1.17s-.61.58-.84.61c-.48,0-.64.17-.68.22,2.29.66,10.1,3.8,10.45,3.94l.1.06a10.65,10.65,0,0,0,2.87,1.46C36.34,40.33,39.43,41.59,40,41.83Z"/><rect class="cls-3" x="18.23" y="11" width="13.68" height="20.51" rx="1.82" ry="1.82" transform="translate(-1.57 40.51) rotate(-76.14)"/><circle class="cls-3" cx="21.41" cy="11.99" r="6.46"/><circle class="cls-3" cx="34.48" cy="14.93" r="6.46"/><polygon class="cls-3" points="14.6 16.71 13.28 22.17 7.41 22.53 10.75 11.74 14.6 16.71"/><circle class="cls-4" cx="21.44" cy="11.71" r="4.25"/><path class="cls-5" d="M21.44,16.21a4.5,4.5,0,1,1,4.5-4.5A4.51,4.51,0,0,1,21.44,16.21Zm0-8.5a4,4,0,1,0,4,4A4,4,0,0,0,21.44,7.71Z"/><circle class="cls-3" cx="21.53" cy="11.71" r="4.25"/><path class="cls-2" d="M21.53,16.21a4.5,4.5,0,1,1,4.5-4.5A4.51,4.51,0,0,1,21.53,16.21Zm0-8.5a4,4,0,1,0,4,4A4,4,0,0,0,21.53,7.71Z"/><circle class="cls-2" cx="21.53" cy="11.74" r="3.08"/><path class="cls-2" d="M21.53,15.07a3.33,3.33,0,1,1,3.33-3.33A3.33,3.33,0,0,1,21.53,15.07Zm0-6.16a2.83,2.83,0,1,0,2.83,2.83A2.83,2.83,0,0,0,21.53,8.91Z"/><circle class="cls-2" cx="34.72" cy="14.55" r="4.44"/><path class="cls-3" d="M34.72,19.24a4.69,4.69,0,1,1,4.69-4.69A4.69,4.69,0,0,1,34.72,19.24Zm0-8.88a4.19,4.19,0,1,0,4.19,4.19A4.2,4.2,0,0,0,34.72,10.36Z"/><circle class="cls-2" cx="34.71" cy="14.59" r="3.23"/><path class="cls-3" d="M34.71,18.07a3.48,3.48,0,1,1,3.48-3.48A3.48,3.48,0,0,1,34.71,18.07Zm0-6.46a3,3,0,1,0,3,3A3,3,0,0,0,34.71,11.61Z"/><rect class="cls-3" x="22.22" y="17.23" width="3.94" height="15.21" rx="1.82" ry="1.82" transform="translate(-5.71 42.37) rotate(-76.14)"/><path class="cls-2" d="M29.77,28.31a1.82,1.82,0,0,1-.46-.06L18.07,25.48a2,2,0,0,1-1.2-.88,2,2,0,0,1-.22-1.47l.07-.29a2,2,0,0,1,2.36-1.43l11.23,2.78a1.94,1.94,0,0,1,1.42,2.35l-.07.29A1.94,1.94,0,0,1,29.77,28.31Zm-11.16-6.7a1.65,1.65,0,0,0-.87.24,1.68,1.68,0,0,0-.77,1l-.08.29a1.74,1.74,0,0,0,.2,1.28,1.66,1.66,0,0,0,1,.77L29.37,28a1.69,1.69,0,0,0,2.05-1.24l.07-.29a1.69,1.69,0,0,0-1.24-2.05L19,21.66A1.44,1.44,0,0,0,18.61,21.61Z"/><path class="cls-3" d="M52.26,42.35l-.16.54-.1.32-.08.23-.1.28s-.14.33-.14.34l-.17.39-.26.55-.21.4-.12.21-.29.51-.41.59-.58.8-.23.26-.35.4-.3.3-.34.33-.41.39v.05l-.63-.75,4.26-6.26Z"/></g></g></g></g></svg>
